<svg width="16" height="16" viewBox="0 0 16 16" fill="none" xmlns="http://www.w3.org/2000/svg">
<path d="M4.27317 13.4995H4.27331C4.86221 13.4996 5.45113 13.4996 6.04018 13.4995C6.2076 13.4995 6.37503 13.4995 6.54247 13.4995L4.27317 13.4995ZM4.27317 13.4995C4.2592 13.4995 4.24879 13.4986 4.24143 13.4976C4.23224 13.4748 4.21593 13.4191 4.21593 13.3087L4.21593 13.3087M4.27317 13.4995L4.21593 13.3087M4.21593 13.3087C4.21588 12.9397 4.21591 12.5707 4.21593 12.2016C4.21601 11.1778 4.2161 10.1535 4.21447 9.12945M4.21593 13.3087L4.21447 9.12945M4.21447 9.12945C4.89131 8.4392 5.56693 7.74702 6.24211 7.0553C6.41407 6.87911 6.58601 6.70296 6.75794 6.52688L6.75802 6.52679C6.84459 6.43808 6.93123 6.34934 7.01792 6.26055C7.34451 5.92604 7.67175 5.59087 7.9982 5.25441C8.13109 5.391 8.264 5.52765 8.39694 5.66433C9.48158 6.77948 10.5682 7.89664 11.6629 9.00074C11.7239 9.06226 11.7468 9.10357 11.7595 9.13728C11.7735 9.1747 11.787 9.23626 11.7857 9.35467C11.7748 10.3192 11.7764 11.2854 11.778 12.2477C11.7786 12.6075 11.7792 12.9668 11.7792 13.3252V13.3253C11.7792 13.4263 11.7628 13.4778 11.7536 13.4988C11.7495 13.4992 11.7444 13.4995 11.7381 13.4995H11.738C11.1 13.5 10.4622 13.4999 9.82408 13.4998C9.70178 13.4998 9.57947 13.4997 9.45716 13.4997V13.4952V13.4883V13.4814V13.4745V13.4676V13.4607V13.4538V13.4469V13.4399V13.433V13.4261V13.4192V13.4123V13.4054V13.3985V13.3916V13.3847V13.3778V13.3709V13.364V13.3571V13.3502V13.3433V13.3364V13.3295V13.3226V13.3157V13.3088V13.3019V13.295V13.2881V13.2812V13.2743V13.2674V13.2605V13.2536V13.2467V13.2398V13.2329V13.226V13.2191V13.2122V13.2053V13.1984V13.1915V13.1846V13.1777V13.1708V13.1639V13.157V13.1501V13.1432V13.1363V13.1294V13.1225V13.1156V13.1087V13.1018V13.0949V13.088V13.0811V13.0742V13.0673V13.0604V13.0535V13.0466V13.0397V13.0328V13.0259V13.019V13.0121V13.0052V12.9983V12.9914V12.9845V12.9776V12.9707V12.9638V12.9569V12.95V12.9431V12.9362V12.9293V12.9224V12.9155V12.9086V12.9017V12.8948V12.8879V12.881V12.8741V12.8672V12.8603V12.8534V12.8465V12.8396V12.8327V12.8258V12.8189V12.812V12.8052V12.7983V12.7914V12.7845V12.7776V12.7707V12.7638V12.7569V12.75V12.7431V12.7362V12.7293V12.7224V12.7155V12.7086V12.7017V12.6948V12.6879V12.681V12.6741V12.6672V12.6603V12.6534V12.6465V12.6396V12.6327V12.6259V12.619V12.6121V12.6052V12.5983V12.5914V12.5845V12.5776V12.5707V12.5638V12.5569V12.55V12.5431V12.5362V12.5293V12.5224V12.5155V12.5086V12.5017V12.4948V12.4879V12.481V12.4742V12.4673V12.4604V12.4535V12.4466V12.4397V12.4328V12.4259V12.419V12.4121V12.4052V12.3983V12.3914V12.3845V12.3776V12.3707V12.3638V12.3569V12.35V12.3431V12.3362V12.3293V12.3225V12.3156V12.3087V12.3018V12.2949V12.288V12.2811V12.2742V12.2673V12.2604V12.2535V12.2466V12.2397V12.2328V12.2259V12.219V12.2121V12.2052V12.1983V12.1914V12.1845V12.1776V12.1707V12.1639V12.157V12.1501V12.1432V12.1363V12.1294V12.1225V12.1156V12.1087V12.1018V12.0949V12.088V12.0811V12.0742V12.0673V12.0604V12.0535V12.0466V12.0397V12.0328V12.0259V12.019V12.0121V12.0052V11.9983V11.9914V11.9845V11.9776V11.9707V11.9638V11.957V11.9501V11.9432V11.9363V11.9294V11.9225V11.9156V11.9087V11.9018V11.8949V11.888V11.8811V11.8742V11.8673V11.8604V11.8535V11.8466V11.8397V11.8328V11.8259V11.819V11.8121V11.8052V11.7983V11.7914V11.7845V11.7776V11.7707V11.7638V11.7569V11.75V11.7431V11.7362V11.7293V11.7224V11.7155V11.7086V11.7017V11.6948V11.6879V11.681V11.6741V11.6672V11.6603V11.6534V11.6465V11.6396V11.6327V11.6258V11.6189V11.612V11.6051V11.5982V11.5913V11.5844V11.5775V11.5706V11.5637V11.5568V11.5499V11.543V11.5361V11.5292V11.5223V11.5154V11.5085V11.5016V11.4946V11.4877V11.4808V11.4739V11.467V11.4601V11.4532V11.4463V11.4394V11.4325V11.4256V11.4187V11.4118V11.4049V11.398V11.3911V11.3842V11.3773V11.3704V11.3635V11.3566V11.3496V11.3427V11.3358V11.3289V11.322V11.3151V11.3082V11.3013V11.2944V11.2875V11.2806V11.2737V11.2668V11.2599V11.253V11.246V11.2391V11.2322V11.2253V11.2184V11.2115V11.2046V11.1977V11.1908V11.1839V11.177V11.17V11.1631V11.1562V11.1493V11.1424V11.1355V11.1286V11.1217V11.1148V11.1079V11.1009V11.094V11.0871V11.0802V11.0733V11.0664V11.0595V11.0526V11.0456V11.0387V11.0318V11.0249V11.018V11.0111V11.0042V10.9972V10.9903V10.9834V10.9765V10.9696V10.9627V10.9558V10.9488V10.9419V10.935V10.9281V10.9212V10.9143V10.9074V10.9004V10.8935V10.8866V10.8797V10.8728V10.8658V10.8589V10.852V10.8451V10.8382V10.8313V10.8243V10.8174V10.8105V10.8036V10.7967V10.7897V10.7828V10.7759V10.769V10.7621V10.7551V10.7482V10.7413V10.7344V10.7275V10.7205V10.7136V10.7067V10.6998V10.6928V10.6859V10.679V10.6721V10.6652V10.6582V10.6513V10.6444V10.6375V10.6305V10.6236V10.6167V10.6098V10.6028V10.5959V10.589V10.5821V10.5751V10.5682V10.5613V10.5543V10.5474V10.5405V10.5336V10.5266V10.5197V10.5128V10.5058V10.4989V10.492V10.4851V10.4781V10.4712V10.4643V9.96427H8.95716H8.95339H8.94962H8.94585H8.94209H8.93832H8.93455H8.93079H8.92702H8.92326H8.91949H8.91573H8.91196H8.9082H8.90443H8.90067H8.89691H8.89315H8.88938H8.88562H8.88186H8.8781H8.87433H8.87057H8.86681H8.86305H8.85929H8.85553H8.85177H8.84801H8.84425H8.8405H8.83674H8.83298H8.82922H8.82546H8.82171H8.81795H8.81419H8.81043H8.80668H8.80292H8.79917H8.79541H8.79166H8.7879H8.78415H8.78039H8.77664H8.77288H8.76913H8.76538H8.76162H8.75787H8.75412H8.75036H8.74661H8.74286H8.73911H8.73536H8.73161H8.72786H8.72411H8.72035H8.7166H8.71285H8.70911H8.70536H8.70161H8.69786H8.69411H8.69036H8.68661H8.68286H8.67912H8.67537H8.67162H8.66787H8.66413H8.66038H8.65663H8.65289H8.64914H8.6454H8.64165H8.63791H8.63416H8.63041H8.62667H8.62293H8.61918H8.61544H8.61169H8.60795H8.60421H8.60046H8.59672H8.59298H8.58924H8.58549H8.58175H8.57801H8.57427H8.57053H8.56678H8.56304H8.5593H8.55556H8.55182H8.54808H8.54434H8.5406H8.53686H8.53312H8.52938H8.52564H8.5219H8.51816H8.51442H8.51068H8.50695H8.50321H8.49947H8.49573H8.49199H8.48826H8.48452H8.48078H8.47705H8.47331H8.46957H8.46583H8.4621H8.45836H8.45463H8.45089H8.44715H8.44342H8.43968H8.43595H8.43221H8.42848H8.42474H8.42101H8.41727H8.41354H8.4098H8.40607H8.40234H8.3986H8.39487H8.39114H8.3874H8.38367H8.37994H8.3762H8.37247H8.36874H8.365H8.36127H8.35754H8.35381H8.35007H8.34634H8.34261H8.33888H8.33515H8.33142H8.32768H8.32395H8.32022H8.31649H8.31276H8.30903H8.3053H8.30157H8.29784H8.29411H8.29038H8.28665H8.28292H8.27919H8.27546H8.27173H8.268H8.26427H8.26054H8.25681H8.25308H8.24935H8.24562H8.24189H8.23816H8.23443H8.2307H8.22698H8.22325H8.21952H8.21579H8.21206H8.20833H8.20461H8.20088H8.19715H8.19342H8.18969H8.18597H8.18224H8.17851H8.17478H8.17106H8.16733H8.1636H8.15987H8.15615H8.15242H8.14869H8.14496H8.14124H8.13751H8.13378H8.13006H8.12633H8.1226H8.11888H8.11515H8.11142H8.1077H8.10397H8.10024H8.09652H8.09279H8.08906H8.08534H8.08161H8.07789H8.07416H8.07043H8.06671H8.06298H8.05925H8.05553H8.0518H8.04808H8.04435H8.04062H8.0369H8.03317H8.02945H8.02572H8.022H8.01827H8.01454H8.01082H8.00709H8.00337H7.99964H7.99591H7.99219H7.98846H7.98474H7.98101H7.97729H7.97356H7.96984H7.96611H7.96238H7.95866H7.95493H7.95121H7.94748H7.94376H7.94003H7.9363H7.93258H7.92885H7.92513H7.9214H7.91768H7.91395H7.91022H7.9065H7.90277H7.89905H7.89532H7.89159H7.88787H7.88414H7.88042H7.87669H7.87296H7.86924H7.86551H7.86179H7.85806H7.85433H7.85061H7.84688H7.84316H7.83943H7.8357H7.83198H7.82825H7.82452H7.8208H7.81707H7.81334H7.80962H7.80589H7.80216H7.79844H7.79471H7.79098H7.78726H7.78353H7.7798H7.77607H7.77235H7.76862H7.76489H7.76117H7.75744H7.75371H7.74998H7.74625H7.74253H7.7388H7.73507H7.73134H7.72762H7.72389H7.72016H7.71643H7.7127H7.70897H7.70525H7.70152H7.69779H7.69406H7.69033H7.6866H7.68287H7.67914H7.67541H7.67168H7.66796H7.66423H7.6605H7.65677H7.65304H7.64931H7.64558H7.64185H7.63812H7.63439H7.63066H7.62692H7.62319H7.61946H7.61573H7.612H7.60827H7.60454H7.60081H7.59708H7.59334H7.58961H7.58588H7.58215H7.57842H7.57469H7.57095H7.56722H7.56349H7.55976H7.55602H7.55229H7.54856H7.54482H7.54109H7.53736H7.53362H7.52989H7.52615H7.52242H7.51869H7.51495H7.51122H7.50748H7.50375H7.50001H7.49628H7.49254H7.48881H7.48507H7.48134H7.4776H7.47386H7.47013H7.46639H7.46266H7.45892H7.45518H7.45145H7.44771H7.44397H7.44023H7.4365H7.43276H7.42902H7.42528H7.42154H7.4178H7.41407H7.41033H7.40659H7.40285H7.39911H7.39537H7.39163H7.38789H7.38415H7.38041H7.37667H7.37293H7.36919H7.36545H7.36171H7.35796H7.35422H7.35048H7.34674H7.343H7.33925H7.33551H7.33177H7.32802H7.32428H7.32054H7.31679H7.31305H7.30931H7.30556H7.30182H7.29807H7.29433H7.29058H7.28684H7.28309H7.27935H7.2756H7.27185H7.26811H7.26436H7.26061H7.25687H7.25312H7.24937H7.24562H7.24187H7.23813H7.23438H7.23063H7.22688H7.22313H7.21938H7.21563H7.21188H7.20813H7.20438H7.20063H7.19688H7.19313H7.18938H7.18562H7.18187H7.17812H7.17437H7.17062H7.16686H7.16311H7.15936H7.1556H7.15185H7.14809H7.14434H7.14058H7.13683H7.13307H7.12932H7.12556H7.12181H7.11805H7.11429H7.11054H7.10678H7.10302H7.09926H7.09551H7.09175H7.08799H7.08423H7.08047H7.07671H7.07295H7.06919H7.06543H7.06167H7.05791H7.05415H7.05039H7.04662H7.04286H6.54303L6.54286 10.4641L4.21447 9.12945Z" fill="#ffffff" stroke="#ffffff"/>
<path d="M7.99958 3.55879C7.61966 3.94464 7.2476 4.32282 6.87534 4.70076C5.55169 6.04548 4.22844 7.3902 2.9046 8.73444C2.73273 8.90891 2.61061 8.89381 2.46863 8.68603C2.34907 8.51108 2.22891 8.33684 2.10915 8.16237C1.95518 7.93805 1.96167 7.80073 2.14416 7.615C2.75987 6.98757 3.37734 6.36279 3.99404 5.73656C5.05358 4.66074 6.11234 3.58372 7.17366 2.51029C7.31406 2.36841 7.45467 2.21431 7.61651 2.11917C7.95475 1.92025 8.28925 1.97154 8.58147 2.26416C9.15096 2.83431 9.71397 3.41428 10.2795 3.98994C10.3063 4.01726 10.3334 4.0441 10.3757 4.08652C10.3781 4.02133 10.3808 3.97963 10.3808 3.93817C10.3812 3.43105 10.3808 2.92394 10.381 2.41658C10.3812 2.129 10.4626 2.03098 10.7011 2.03074C11.1239 2.0305 11.5465 2.03026 11.9693 2.03074C12.2047 2.03098 12.2863 2.13187 12.2863 2.42138C12.2863 3.58348 12.2871 4.74558 12.2848 5.90768C12.2846 5.9918 12.3048 6.04644 12.3577 6.09988C12.8403 6.58519 13.3209 7.07337 13.8021 7.56083C13.8373 7.59654 13.8733 7.63153 13.9065 7.66988C14.0125 7.79258 14.033 7.93781 13.9441 8.0761C13.7948 8.30856 13.6395 8.536 13.4769 8.75481C13.3734 8.89381 13.2462 8.88758 13.1182 8.75816C12.7323 8.36824 12.3477 7.97688 11.9627 7.58576C10.9564 6.56314 9.95015 5.54004 8.94389 4.51742C8.6322 4.20059 8.32012 3.88425 7.99958 3.55879Z" fill="#ffffff"/>
</svg>