<svg width="16" height="16" viewBox="0 0 16 16" fill="none" xmlns="http://www.w3.org/2000/svg">
<path d="M4.27318 13.4995C4.86208 13.4996 5.45114 13.4996 6.04019 13.4995C6.20761 13.4995 6.37504 13.4995 6.54248 13.4995H4.27318ZM4.27318 13.4995C4.25921 13.4995 4.2488 13.4986 4.24144 13.4976C4.23225 13.4748 4.21594 13.4191 4.21594 13.3087M4.27318 13.4995L4.21594 13.3087ZM4.21594 13.3087C4.21589 12.9397 4.21592 12.5707 4.21594 12.2016C4.21602 11.1778 4.21611 10.1535 4.21448 9.12945M4.21594 13.3087L4.21448 9.12945ZM4.21448 9.12945C4.89132 8.4392 5.56694 7.74702 6.24212 7.0553C6.41408 6.87911 6.58602 6.70296 6.75795 6.52688C6.84452 6.43817 6.93124 6.34934 7.01793 6.26055C7.34452 5.92604 7.67176 5.59087 7.99821 5.25441C8.1311 5.391 8.26401 5.52765 8.39695 5.66433C9.48159 6.77948 10.5682 7.89664 11.6629 9.00074C11.7239 9.06226 11.7468 9.10357 11.7595 9.13728C11.7735 9.1747 11.787 9.23626 11.7857 9.35467C11.7748 10.3192 11.7764 11.2854 11.778 12.2477C11.7786 12.6075 11.7792 12.9668 11.7792 13.3252C11.7792 13.4262 11.7628 13.4778 11.7536 13.4988C11.7495 13.4992 11.7444 13.4995 11.7381 13.4995C11.1001 13.5 10.4622 13.4999 9.82409 13.4998C9.70179 13.4998 9.57948 13.4997 9.45717 13.4997V13.4952V13.4883V13.4814V13.4745V13.4676V13.4607V13.4538V13.4469V13.4399V13.433V13.4261V13.4192V13.4123V13.4054V13.3985V13.3916V13.3847V13.3778V13.3709V13.364V13.3571V13.3502V13.3433V13.3364V13.3295V13.3226V13.3157V13.3088V13.3019V13.295V13.2881V13.2812V13.2743V13.2674V13.2605V13.2536V13.2467V13.2398V13.2329V13.226V13.2191V13.2122V13.2053V13.1984V13.1915V13.1846V13.1777V13.1708V13.1639V13.157V13.1501V13.1432V13.1363V13.1294V13.1225V13.1156V13.1087V13.1018V13.0949V13.088V13.0811V13.0742V13.0673V13.0604V13.0535V13.0466V13.0397V13.0328V13.0259V13.019V13.0121V13.0052V12.9983V12.9914V12.9845V12.9776V12.9707V12.9638V12.9569V12.95V12.9431V12.9362V12.9293V12.9224V12.9155V12.9086V12.9017V12.8948V12.8879V12.881V12.8741V12.8672V12.8603V12.8534V12.8465V12.8396V12.8327V12.8258V12.8189V12.812V12.8052V12.7983V12.7914V12.7845V12.7776V12.7707V12.7638V12.7569V12.75V12.7431V12.7362V12.7293V12.7224V12.7155V12.7086V12.7017V12.6948V12.6879V12.681V12.6741V12.6672V12.6603V12.6534V12.6465V12.6396V12.6327V12.6259V12.619V12.6121V12.6052V12.5983V12.5914V12.5845V12.5776V12.5707V12.5638V12.5569V12.55V12.5431V12.5362V12.5293V12.5224V12.5155V12.5086V12.5017V12.4948V12.4879V12.481V12.4742V12.4673V12.4604V12.4535V12.4466V12.4397V12.4328V12.4259V12.419V12.4121V12.4052V12.3983V12.3914V12.3845V12.3776V12.3707V12.3638V12.3569V12.35V12.3431V12.3362V12.3293V12.3225V12.3156V12.3087V12.3018V12.2949V12.288V12.2811V12.2742V12.2673V12.2604V12.2535V12.2466V12.2397V12.2328V12.2259V12.219V12.2121V12.2052V12.1983V12.1914V12.1845V12.1776V12.1707V12.1639V12.157V12.1501V12.1432V12.1363V12.1294V12.1225V12.1156V12.1087V12.1018V12.0949V12.088V12.0811V12.0742V12.0673V12.0604V12.0535V12.0466V12.0397V12.0328V12.0259V12.019V12.0121V12.0052V11.9983V11.9914V11.9845V11.9776V11.9707V11.9638V11.957V11.9501V11.9432V11.9363V11.9294V11.9225V11.9156V11.9087V11.9018V11.8949V11.888V11.8811V11.8742V11.8673V11.8604V11.8535V11.8466V11.8397V11.8328V11.8259V11.819V11.8121V11.8052V11.7983V11.7914V11.7845V11.7776V11.7707V11.7638V11.7569V11.75V11.7431V11.7362V11.7293V11.7224V11.7155V11.7086V11.7017V11.6948V11.6879V11.681V11.6741V11.6672V11.6603V11.6534V11.6465V11.6396V11.6327V11.6258V11.6189V11.612V11.6051V11.5982V11.5913V11.5844V11.5775V11.5706V11.5637V11.5568V11.5499V11.543V11.5361V11.5292V11.5223V11.5154V11.5085V11.5016V11.4946V11.4877V11.4808V11.4739V11.467V11.4601V11.4532V11.4463V11.4394V11.4325V11.4256V11.4187V11.4118V11.4049V11.398V11.3911V11.3842V11.3773V11.3704V11.3635V11.3566V11.3496V11.3427V11.3358V11.3289V11.322V11.3151V11.3082V11.3013V11.2944V11.2875V11.2806V11.2737V11.2668V11.2599V11.253V11.246V11.2391V11.2322V11.2253V11.2184V11.2115V11.2046V11.1977V11.1908V11.1839V11.177V11.17V11.1631V11.1562V11.1493V11.1424V11.1355V11.1286V11.1217V11.1148V11.1079V11.1009V11.094V11.0871V11.0802V11.0733V11.0664V11.0595V11.0526V11.0456V11.0387V11.0318V11.0249V11.018V11.0111V11.0042V10.9972V10.9903V10.9834V10.9765V10.9696V10.9627V10.9558V10.9488V10.9419V10.935V10.9281V10.9212V10.9143V10.9074V10.9004V10.8935V10.8866V10.8797V10.8728V10.8658V10.8589V10.852V10.8451V10.8382V10.8313V10.8243V10.8174V10.8105V10.8036V10.7967V10.7897V10.7828V10.7759V10.769V10.7621V10.7551V10.7482V10.7413V10.7344V10.7275V10.7205V10.7136V10.7067V10.6998V10.6928V10.6859V10.679V10.6721V10.6652V10.6582V10.6513V10.6444V10.6375V10.6305V10.6236V10.6167V10.6098V10.6028V10.5959V10.589V10.5821V10.5751V10.5682V10.5613V10.5543V10.5474V10.5405V10.5336V10.5266V10.5197V10.5128V10.5058V10.4989V10.492V10.4851V10.4781V10.4712V10.4643V9.96427H8.95717H8.9534H8.94963H8.94586H8.9421H8.93833H8.93456H8.9308H8.92703H8.92327H8.9195H8.91574H8.91197H8.90821H8.90444H8.90068H8.89692H8.89316H8.88939H8.88563H8.88187H8.87811H8.87434H8.87058H8.86682H8.86306H8.8593H8.85554H8.85178H8.84802H8.84426H8.84051H8.83675H8.83299H8.82923H8.82547H8.82172H8.81796H8.8142H8.81044H8.80669H8.80293H8.79918H8.79542H8.79167H8.78791H8.78416H8.7804H8.77665H8.77289H8.76914H8.76539H8.76163H8.75788H8.75413H8.75037H8.74662H8.74287H8.73912H8.73537H8.73162H8.72787H8.72412H8.72036H8.71661H8.71286H8.70912H8.70537H8.70162H8.69787H8.69412H8.69037H8.68662H8.68287H8.67913H8.67538H8.67163H8.66788H8.66414H8.66039H8.65664H8.6529H8.64915H8.64541H8.64166H8.63792H8.63417H8.63042H8.62668H8.62294H8.61919H8.61545H8.6117H8.60796H8.60422H8.60047H8.59673H8.59299H8.58925H8.5855H8.58176H8.57802H8.57428H8.57054H8.56679H8.56305H8.55931H8.55557H8.55183H8.54809H8.54435H8.54061H8.53687H8.53313H8.52939H8.52565H8.52191H8.51817H8.51443H8.51069H8.50696H8.50322H8.49948H8.49574H8.492H8.48827H8.48453H8.48079H8.47706H8.47332H8.46958H8.46584H8.46211H8.45837H8.45464H8.4509H8.44716H8.44343H8.43969H8.43596H8.43222H8.42849H8.42475H8.42102H8.41728H8.41355H8.40981H8.40608H8.40235H8.39861H8.39488H8.39115H8.38741H8.38368H8.37995H8.37621H8.37248H8.36875H8.36501H8.36128H8.35755H8.35382H8.35008H8.34635H8.34262H8.33889H8.33516H8.33143H8.32769H8.32396H8.32023H8.3165H8.31277H8.30904H8.30531H8.30158H8.29785H8.29412H8.29039H8.28666H8.28293H8.2792H8.27547H8.27174H8.26801H8.26428H8.26055H8.25682H8.25309H8.24936H8.24563H8.2419H8.23817H8.23444H8.23071H8.22699H8.22326H8.21953H8.2158H8.21207H8.20834H8.20462H8.20089H8.19716H8.19343H8.1897H8.18598H8.18225H8.17852H8.17479H8.17107H8.16734H8.16361H8.15988H8.15616H8.15243H8.1487H8.14497H8.14125H8.13752H8.13379H8.13007H8.12634H8.12261H8.11889H8.11516H8.11143H8.10771H8.10398H8.10025H8.09653H8.0928H8.08907H8.08535H8.08162H8.0779H8.07417H8.07044H8.06672H8.06299H8.05926H8.05554H8.05181H8.04809H8.04436H8.04063H8.03691H8.03318H8.02946H8.02573H8.02201H8.01828H8.01455H8.01083H8.0071H8.00338H7.99965H7.99592H7.9922H7.98847H7.98475H7.98102H7.9773H7.97357H7.96985H7.96612H7.96239H7.95867H7.95494H7.95122H7.94749H7.94377H7.94004H7.93631H7.93259H7.92886H7.92514H7.92141H7.91769H7.91396H7.91023H7.90651H7.90278H7.89906H7.89533H7.8916H7.88788H7.88415H7.88043H7.8767H7.87297H7.86925H7.86552H7.8618H7.85807H7.85434H7.85062H7.84689H7.84317H7.83944H7.83571H7.83199H7.82826H7.82453H7.82081H7.81708H7.81335H7.80963H7.8059H7.80217H7.79845H7.79472H7.79099H7.78727H7.78354H7.77981H7.77608H7.77236H7.76863H7.7649H7.76118H7.75745H7.75372H7.74999H7.74626H7.74254H7.73881H7.73508H7.73135H7.72763H7.7239H7.72017H7.71644H7.71271H7.70898H7.70526H7.70153H7.6978H7.69407H7.69034H7.68661H7.68288H7.67915H7.67542H7.67169H7.66797H7.66424H7.66051H7.65678H7.65305H7.64932H7.64559H7.64186H7.63813H7.6344H7.63067H7.62693H7.6232H7.61947H7.61574H7.61201H7.60828H7.60455H7.60082H7.59709H7.59335H7.58962H7.58589H7.58216H7.57843H7.5747H7.57096H7.56723H7.5635H7.55977H7.55603H7.5523H7.54857H7.54483H7.5411H7.53737H7.53363H7.5299H7.52616H7.52243H7.5187H7.51496H7.51123H7.50749H7.50376H7.50002H7.49629H7.49255H7.48882H7.48508H7.48135H7.47761H7.47387H7.47014H7.4664H7.46267H7.45893H7.45519H7.45146H7.44772H7.44398H7.44024H7.43651H7.43277H7.42903H7.42529H7.42155H7.41781H7.41408H7.41034H7.4066H7.40286H7.39912H7.39538H7.39164H7.3879H7.38416H7.38042H7.37668H7.37294H7.3692H7.36546H7.36172H7.35797H7.35423H7.35049H7.34675H7.34301H7.33926H7.33552H7.33178H7.32803H7.32429H7.32055H7.3168H7.31306H7.30932H7.30557H7.30183H7.29808H7.29434H7.29059H7.28685H7.2831H7.27936H7.27561H7.27186H7.26812H7.26437H7.26062H7.25688H7.25313H7.24938H7.24563H7.24188H7.23814H7.23439H7.23064H7.22689H7.22314H7.21939H7.21564H7.21189H7.20814H7.20439H7.20064H7.19689H7.19314H7.18939H7.18563H7.18188H7.17813H7.17438H7.17063H7.16687H7.16312H7.15937H7.15561H7.15186H7.1481H7.14435H7.14059H7.13684H7.13308H7.12933H7.12557H7.12182H7.11806H7.1143H7.11055H7.10679H7.10303H7.09927H7.09552H7.09176H7.088H7.08424H7.08048H7.07672H7.07296H7.0692H7.06544H7.06168H7.05792H7.05416H7.0504H7.04663H7.04287H6.54304L6.54287 10.4641L4.21448 9.12945Z" fill="#008BD6"/>
<path d="M4.27318 13.4995C4.86208 13.4996 5.45114 13.4996 6.04019 13.4995C6.20761 13.4995 6.37504 13.4995 6.54248 13.4995H4.27318ZM4.27318 13.4995C4.25921 13.4995 4.2488 13.4986 4.24144 13.4976C4.23225 13.4748 4.21594 13.4191 4.21594 13.3087M4.27318 13.4995L4.21594 13.3087M4.21594 13.3087C4.21589 12.9397 4.21592 12.5707 4.21594 12.2016C4.21602 11.1778 4.21611 10.1535 4.21448 9.12945M4.21594 13.3087L4.21448 9.12945M4.21448 9.12945C4.89132 8.4392 5.56694 7.74702 6.24212 7.0553C6.41408 6.87911 6.58602 6.70296 6.75795 6.52688C6.84452 6.43817 6.93124 6.34934 7.01793 6.26055C7.34452 5.92604 7.67176 5.59087 7.99821 5.25441C8.1311 5.391 8.26401 5.52765 8.39695 5.66433C9.48159 6.77948 10.5682 7.89664 11.6629 9.00074C11.7239 9.06226 11.7468 9.10357 11.7595 9.13728C11.7735 9.1747 11.787 9.23626 11.7857 9.35467C11.7748 10.3192 11.7764 11.2854 11.778 12.2477C11.7786 12.6075 11.7792 12.9668 11.7792 13.3252C11.7792 13.4262 11.7628 13.4778 11.7536 13.4988C11.7495 13.4992 11.7444 13.4995 11.7381 13.4995C11.1001 13.5 10.4622 13.4999 9.82409 13.4998C9.70179 13.4998 9.57948 13.4997 9.45717 13.4997V13.4952V13.4883V13.4814V13.4745V13.4676V13.4607V13.4538V13.4469V13.4399V13.433V13.4261V13.4192V13.4123V13.4054V13.3985V13.3916V13.3847V13.3778V13.3709V13.364V13.3571V13.3502V13.3433V13.3364V13.3295V13.3226V13.3157V13.3088V13.3019V13.295V13.2881V13.2812V13.2743V13.2674V13.2605V13.2536V13.2467V13.2398V13.2329V13.226V13.2191V13.2122V13.2053V13.1984V13.1915V13.1846V13.1777V13.1708V13.1639V13.157V13.1501V13.1432V13.1363V13.1294V13.1225V13.1156V13.1087V13.1018V13.0949V13.088V13.0811V13.0742V13.0673V13.0604V13.0535V13.0466V13.0397V13.0328V13.0259V13.019V13.0121V13.0052V12.9983V12.9914V12.9845V12.9776V12.9707V12.9638V12.9569V12.95V12.9431V12.9362V12.9293V12.9224V12.9155V12.9086V12.9017V12.8948V12.8879V12.881V12.8741V12.8672V12.8603V12.8534V12.8465V12.8396V12.8327V12.8258V12.8189V12.812V12.8052V12.7983V12.7914V12.7845V12.7776V12.7707V12.7638V12.7569V12.75V12.7431V12.7362V12.7293V12.7224V12.7155V12.7086V12.7017V12.6948V12.6879V12.681V12.6741V12.6672V12.6603V12.6534V12.6465V12.6396V12.6327V12.6259V12.619V12.6121V12.6052V12.5983V12.5914V12.5845V12.5776V12.5707V12.5638V12.5569V12.55V12.5431V12.5362V12.5293V12.5224V12.5155V12.5086V12.5017V12.4948V12.4879V12.481V12.4742V12.4673V12.4604V12.4535V12.4466V12.4397V12.4328V12.4259V12.419V12.4121V12.4052V12.3983V12.3914V12.3845V12.3776V12.3707V12.3638V12.3569V12.35V12.3431V12.3362V12.3293V12.3225V12.3156V12.3087V12.3018V12.2949V12.288V12.2811V12.2742V12.2673V12.2604V12.2535V12.2466V12.2397V12.2328V12.2259V12.219V12.2121V12.2052V12.1983V12.1914V12.1845V12.1776V12.1707V12.1639V12.157V12.1501V12.1432V12.1363V12.1294V12.1225V12.1156V12.1087V12.1018V12.0949V12.088V12.0811V12.0742V12.0673V12.0604V12.0535V12.0466V12.0397V12.0328V12.0259V12.019V12.0121V12.0052V11.9983V11.9914V11.9845V11.9776V11.9707V11.9638V11.957V11.9501V11.9432V11.9363V11.9294V11.9225V11.9156V11.9087V11.9018V11.8949V11.888V11.8811V11.8742V11.8673V11.8604V11.8535V11.8466V11.8397V11.8328V11.8259V11.819V11.8121V11.8052V11.7983V11.7914V11.7845V11.7776V11.7707V11.7638V11.7569V11.75V11.7431V11.7362V11.7293V11.7224V11.7155V11.7086V11.7017V11.6948V11.6879V11.681V11.6741V11.6672V11.6603V11.6534V11.6465V11.6396V11.6327V11.6258V11.6189V11.612V11.6051V11.5982V11.5913V11.5844V11.5775V11.5706V11.5637V11.5568V11.5499V11.543V11.5361V11.5292V11.5223V11.5154V11.5085V11.5016V11.4946V11.4877V11.4808V11.4739V11.467V11.4601V11.4532V11.4463V11.4394V11.4325V11.4256V11.4187V11.4118V11.4049V11.398V11.3911V11.3842V11.3773V11.3704V11.3635V11.3566V11.3496V11.3427V11.3358V11.3289V11.322V11.3151V11.3082V11.3013V11.2944V11.2875V11.2806V11.2737V11.2668V11.2599V11.253V11.246V11.2391V11.2322V11.2253V11.2184V11.2115V11.2046V11.1977V11.1908V11.1839V11.177V11.17V11.1631V11.1562V11.1493V11.1424V11.1355V11.1286V11.1217V11.1148V11.1079V11.1009V11.094V11.0871V11.0802V11.0733V11.0664V11.0595V11.0526V11.0456V11.0387V11.0318V11.0249V11.018V11.0111V11.0042V10.9972V10.9903V10.9834V10.9765V10.9696V10.9627V10.9558V10.9488V10.9419V10.935V10.9281V10.9212V10.9143V10.9074V10.9004V10.8935V10.8866V10.8797V10.8728V10.8658V10.8589V10.852V10.8451V10.8382V10.8313V10.8243V10.8174V10.8105V10.8036V10.7967V10.7897V10.7828V10.7759V10.769V10.7621V10.7551V10.7482V10.7413V10.7344V10.7275V10.7205V10.7136V10.7067V10.6998V10.6928V10.6859V10.679V10.6721V10.6652V10.6582V10.6513V10.6444V10.6375V10.6305V10.6236V10.6167V10.6098V10.6028V10.5959V10.589V10.5821V10.5751V10.5682V10.5613V10.5543V10.5474V10.5405V10.5336V10.5266V10.5197V10.5128V10.5058V10.4989V10.492V10.4851V10.4781V10.4712V10.4643V9.96427H8.95717H8.9534H8.94963H8.94586H8.9421H8.93833H8.93456H8.9308H8.92703H8.92327H8.9195H8.91574H8.91197H8.90821H8.90444H8.90068H8.89692H8.89316H8.88939H8.88563H8.88187H8.87811H8.87434H8.87058H8.86682H8.86306H8.8593H8.85554H8.85178H8.84802H8.84426H8.84051H8.83675H8.83299H8.82923H8.82547H8.82172H8.81796H8.8142H8.81044H8.80669H8.80293H8.79918H8.79542H8.79167H8.78791H8.78416H8.7804H8.77665H8.77289H8.76914H8.76539H8.76163H8.75788H8.75413H8.75037H8.74662H8.74287H8.73912H8.73537H8.73162H8.72787H8.72412H8.72036H8.71661H8.71286H8.70912H8.70537H8.70162H8.69787H8.69412H8.69037H8.68662H8.68287H8.67913H8.67538H8.67163H8.66788H8.66414H8.66039H8.65664H8.6529H8.64915H8.64541H8.64166H8.63792H8.63417H8.63042H8.62668H8.62294H8.61919H8.61545H8.6117H8.60796H8.60422H8.60047H8.59673H8.59299H8.58925H8.5855H8.58176H8.57802H8.57428H8.57054H8.56679H8.56305H8.55931H8.55557H8.55183H8.54809H8.54435H8.54061H8.53687H8.53313H8.52939H8.52565H8.52191H8.51817H8.51443H8.51069H8.50696H8.50322H8.49948H8.49574H8.492H8.48827H8.48453H8.48079H8.47706H8.47332H8.46958H8.46584H8.46211H8.45837H8.45464H8.4509H8.44716H8.44343H8.43969H8.43596H8.43222H8.42849H8.42475H8.42102H8.41728H8.41355H8.40981H8.40608H8.40235H8.39861H8.39488H8.39115H8.38741H8.38368H8.37995H8.37621H8.37248H8.36875H8.36501H8.36128H8.35755H8.35382H8.35008H8.34635H8.34262H8.33889H8.33516H8.33143H8.32769H8.32396H8.32023H8.3165H8.31277H8.30904H8.30531H8.30158H8.29785H8.29412H8.29039H8.28666H8.28293H8.2792H8.27547H8.27174H8.26801H8.26428H8.26055H8.25682H8.25309H8.24936H8.24563H8.2419H8.23817H8.23444H8.23071H8.22699H8.22326H8.21953H8.2158H8.21207H8.20834H8.20462H8.20089H8.19716H8.19343H8.1897H8.18598H8.18225H8.17852H8.17479H8.17107H8.16734H8.16361H8.15988H8.15616H8.15243H8.1487H8.14497H8.14125H8.13752H8.13379H8.13007H8.12634H8.12261H8.11889H8.11516H8.11143H8.10771H8.10398H8.10025H8.09653H8.0928H8.08907H8.08535H8.08162H8.0779H8.07417H8.07044H8.06672H8.06299H8.05926H8.05554H8.05181H8.04809H8.04436H8.04063H8.03691H8.03318H8.02946H8.02573H8.02201H8.01828H8.01455H8.01083H8.0071H8.00338H7.99965H7.99592H7.9922H7.98847H7.98475H7.98102H7.9773H7.97357H7.96985H7.96612H7.96239H7.95867H7.95494H7.95122H7.94749H7.94377H7.94004H7.93631H7.93259H7.92886H7.92514H7.92141H7.91769H7.91396H7.91023H7.90651H7.90278H7.89906H7.89533H7.8916H7.88788H7.88415H7.88043H7.8767H7.87297H7.86925H7.86552H7.8618H7.85807H7.85434H7.85062H7.84689H7.84317H7.83944H7.83571H7.83199H7.82826H7.82453H7.82081H7.81708H7.81335H7.80963H7.8059H7.80217H7.79845H7.79472H7.79099H7.78727H7.78354H7.77981H7.77608H7.77236H7.76863H7.7649H7.76118H7.75745H7.75372H7.74999H7.74626H7.74254H7.73881H7.73508H7.73135H7.72763H7.7239H7.72017H7.71644H7.71271H7.70898H7.70526H7.70153H7.6978H7.69407H7.69034H7.68661H7.68288H7.67915H7.67542H7.67169H7.66797H7.66424H7.66051H7.65678H7.65305H7.64932H7.64559H7.64186H7.63813H7.6344H7.63067H7.62693H7.6232H7.61947H7.61574H7.61201H7.60828H7.60455H7.60082H7.59709H7.59335H7.58962H7.58589H7.58216H7.57843H7.5747H7.57096H7.56723H7.5635H7.55977H7.55603H7.5523H7.54857H7.54483H7.5411H7.53737H7.53363H7.5299H7.52616H7.52243H7.5187H7.51496H7.51123H7.50749H7.50376H7.50002H7.49629H7.49255H7.48882H7.48508H7.48135H7.47761H7.47387H7.47014H7.4664H7.46267H7.45893H7.45519H7.45146H7.44772H7.44398H7.44024H7.43651H7.43277H7.42903H7.42529H7.42155H7.41781H7.41408H7.41034H7.4066H7.40286H7.39912H7.39538H7.39164H7.3879H7.38416H7.38042H7.37668H7.37294H7.3692H7.36546H7.36172H7.35797H7.35423H7.35049H7.34675H7.34301H7.33926H7.33552H7.33178H7.32803H7.32429H7.32055H7.3168H7.31306H7.30932H7.30557H7.30183H7.29808H7.29434H7.29059H7.28685H7.2831H7.27936H7.27561H7.27186H7.26812H7.26437H7.26062H7.25688H7.25313H7.24938H7.24563H7.24188H7.23814H7.23439H7.23064H7.22689H7.22314H7.21939H7.21564H7.21189H7.20814H7.20439H7.20064H7.19689H7.19314H7.18939H7.18563H7.18188H7.17813H7.17438H7.17063H7.16687H7.16312H7.15937H7.15561H7.15186H7.1481H7.14435H7.14059H7.13684H7.13308H7.12933H7.12557H7.12182H7.11806H7.1143H7.11055H7.10679H7.10303H7.09927H7.09552H7.09176H7.088H7.08424H7.08048H7.07672H7.07296H7.0692H7.06544H7.06168H7.05792H7.05416H7.0504H7.04663H7.04287H6.54304L6.54287 10.4641L4.21448 9.12945Z" stroke="#007CC2"/>
<path d="M7.99958 3.55879C7.61966 3.94464 7.2476 4.32282 6.87534 4.70076C5.55169 6.04548 4.22844 7.3902 2.9046 8.73444C2.73273 8.90891 2.61061 8.89381 2.46863 8.68603C2.34907 8.51108 2.22891 8.33684 2.10915 8.16237C1.95518 7.93805 1.96167 7.80073 2.14416 7.615C2.75987 6.98757 3.37734 6.36279 3.99404 5.73656C5.05358 4.66074 6.11234 3.58372 7.17366 2.51029C7.31406 2.36841 7.45467 2.21431 7.61651 2.11917C7.95475 1.92025 8.28925 1.97154 8.58147 2.26416C9.15096 2.83431 9.71397 3.41428 10.2795 3.98994C10.3063 4.01726 10.3334 4.0441 10.3757 4.08652C10.3781 4.02133 10.3808 3.97963 10.3808 3.93817C10.3812 3.43105 10.3808 2.92394 10.381 2.41658C10.3812 2.129 10.4626 2.03098 10.7011 2.03074C11.1239 2.0305 11.5465 2.03026 11.9693 2.03074C12.2047 2.03098 12.2863 2.13187 12.2863 2.42138C12.2863 3.58348 12.2871 4.74558 12.2848 5.90768C12.2846 5.9918 12.3048 6.04644 12.3577 6.09988C12.8403 6.58519 13.3209 7.07337 13.8021 7.56083C13.8373 7.59654 13.8733 7.63153 13.9065 7.66988C14.0125 7.79258 14.033 7.93781 13.9441 8.0761C13.7948 8.30856 13.6395 8.536 13.4769 8.75481C13.3734 8.89381 13.2462 8.88758 13.1182 8.75816C12.7323 8.36824 12.3477 7.97688 11.9627 7.58576C10.9564 6.56314 9.95015 5.54004 8.94389 4.51742C8.6322 4.20059 8.32012 3.88425 7.99958 3.55879Z" fill="#008BD6"/>
</svg>
