<svg width="12" height="12" viewBox="0 0 12 12" fill="none" xmlns="http://www.w3.org/2000/svg">
<path fill-rule="evenodd" clip-rule="evenodd" d="M9.85723 7.37849V10.71H4.15658V1.30268H10.1628V0.670525H9.97813C9.30901 0.670525 8.63989 0.671104 7.97077 0.671683C6.16928 0.673243 4.3678 0.674803 2.56632 0.665057C1.93507 0.661715 1.3743 1.13652 1.38767 1.84978C1.38951 1.95052 1.38901 2.05139 1.38849 2.15739C1.38823 2.20898 1.38797 2.26178 1.38797 2.31638H0.668023V2.95188H1.37582V4.00719H0.667111V4.64026H1.38038V5.69011H0.667111V6.32682H1.37977V7.38761H0.666504V8.0225H1.37886V9.08359H0.670149V9.71514H1.38827C1.38827 9.77141 1.38768 9.82635 1.38709 9.88036C1.38581 9.99891 1.38458 10.1129 1.38979 10.2267C1.40164 10.4834 1.46786 10.7225 1.63494 10.9269C1.88707 11.2358 2.21971 11.3601 2.60824 11.3589C2.94907 11.3577 3.28991 11.3561 3.63074 11.3545C4.23647 11.3518 4.8422 11.349 5.44793 11.3482C6.44051 11.3471 7.43321 11.3473 8.42596 11.3475C8.96724 11.3476 9.50853 11.3477 10.0498 11.3476C10.4058 11.3476 10.4967 11.2553 10.4967 10.8956V7.55408V7.37849H9.85723ZM3.19319 1.30755C3.29712 1.30861 3.4015 1.30967 3.5065 1.30967V1.31704C3.5065 4.44861 3.5065 7.56809 3.5062 10.7136C3.48962 10.7136 3.47306 10.7137 3.45652 10.7137C3.41516 10.7139 3.37388 10.714 3.33244 10.7133C3.24845 10.7119 3.16441 10.7111 3.08038 10.7104C2.86593 10.7084 2.65148 10.7065 2.43782 10.693C2.22943 10.6799 2.06964 10.5183 2.05233 10.3105C2.04149 10.1803 2.04395 10.0488 2.04656 9.90939C2.04776 9.84562 2.04899 9.78018 2.04899 9.7124H2.42172H2.80994V9.08298H2.04777V8.02493H2.81025V7.38336H2.04473V6.32561H2.81207V5.69193H2.04656V4.63783H2.80873V4.00355C2.74756 4.00355 2.68621 4.00303 2.62473 4.0025C2.47678 4.00124 2.32812 3.99997 2.17961 4.00598C2.06478 4.01054 2.03106 3.97196 2.0338 3.85926C2.03879 3.64672 2.03789 3.43419 2.03697 3.21569C2.0366 3.12813 2.03623 3.03961 2.03623 2.94975H2.81116V2.31729H2.0259C2.03018 2.24354 2.03241 2.17102 2.03461 2.0996C2.03957 1.93804 2.04436 1.78213 2.07238 1.63046C2.10731 1.44029 2.26679 1.32364 2.45544 1.31453C2.70008 1.30254 2.94533 1.30503 3.19319 1.30755ZM11.0781 3.58221C11.2306 3.36622 11.3254 3.1314 11.3314 2.91481C11.3725 2.18059 10.7361 1.58397 10.0574 1.65566C9.64914 1.6988 9.35721 1.90536 9.12604 2.23375C8.47808 3.15474 7.82816 4.07442 7.17823 4.9941C6.74495 5.60721 6.31168 6.22032 5.87898 6.83382C5.84223 6.88576 5.81215 6.94864 5.79879 7.01092C5.73201 7.32153 5.66656 7.63239 5.60111 7.94324C5.52305 8.31399 5.445 8.68473 5.36469 9.05502C5.33006 9.2136 5.34707 9.3503 5.48529 9.44538C5.62412 9.54076 5.75869 9.5037 5.89509 9.41895C6.42335 9.09057 6.95192 8.76249 7.48717 8.44535C7.6825 8.32961 7.8356 8.18744 7.96683 7.99971C8.81617 6.78484 9.67147 5.57388 10.5266 4.36311C10.7105 4.10281 10.8943 3.84252 11.0781 3.58221ZM7.0188 7.26971C6.87056 7.16823 6.72148 7.06618 6.56947 6.96201C6.80652 6.626 7.04139 6.29294 7.27574 5.96064C7.60898 5.48809 7.94115 5.01707 8.27699 4.54122L9.1789 5.16822C8.84907 5.63743 8.52099 6.10438 8.19215 6.57241C7.95554 6.90918 7.71853 7.24652 7.48019 7.58566C7.32575 7.47982 7.17273 7.37507 7.0188 7.26971ZM8.81732 3.77444C8.9589 3.57305 9.10093 3.37101 9.24937 3.15965L9.34702 3.22806C9.61655 3.41689 9.87804 3.60008 10.147 3.78908L10.1271 3.81751C9.92978 4.09866 9.73944 4.36987 9.54343 4.64876C9.36336 4.52338 9.1859 4.39996 9.00695 4.27551C8.88673 4.1919 8.76584 4.10782 8.64304 4.02238C8.70133 3.93944 8.75929 3.857 8.81732 3.77444Z" fill="white"/>
</svg>
