<svg width="16" height="16" viewBox="0 0 16 16" fill="none" xmlns="http://www.w3.org/2000/svg">
<path fill-rule="evenodd" clip-rule="evenodd" d="M5.66691 3H14.7332C14.8805 3 14.9999 3.13682 14.9999 3.30556V11.8613C14.9999 12.03 14.8805 12.1669 14.7332 12.1669H5.66691C5.51965 12.1669 5.40025 12.03 5.40025 11.8613V10.3335H5.93357V11.5557H14.4666V3.61112H5.93357V7.27786H5.40025V3.30556C5.40025 3.13682 5.51965 3 5.66691 3ZM1.66678 7.88901H7.5332C7.68047 7.88901 7.79986 8.02582 7.79986 8.19457V9.41682C7.79986 9.58557 7.68047 9.72238 7.5332 9.72238H4.59999V13.6947C4.59999 13.8634 4.4806 14.0003 4.33333 14.0003H0.600152C0.452891 14.0003 0.333496 13.8634 0.333496 13.6947V9.41682C0.334363 8.57347 0.930805 7.89 1.66678 7.88901ZM4.33333 9.11126H7.26655V8.50013H1.66678C1.22496 8.50013 0.866808 8.91054 0.866808 9.41682V13.3891H4.06668V9.41682C4.06668 9.24807 4.18607 9.11126 4.33333 9.11126ZM13.3988 4.87138H6.99905V5.48251H13.3988V4.87138ZM6.99905 6.39925H13.3988V7.01037H6.99905V6.39925ZM13.3985 7.92728H8.46537V8.5384H13.3985V7.92728ZM1.40056 5.74995C1.40056 5.07492 1.87811 4.52769 2.46718 4.52769C3.05626 4.52769 3.53381 5.07492 3.53381 5.74995V6.36108C3.53381 7.03611 3.05626 7.58333 2.46718 7.58333C1.87811 7.58333 1.40056 7.03611 1.40056 6.36108V5.74995ZM2.46718 6.97221C2.76174 6.97221 3.00049 6.69861 3.00049 6.36108V5.74995C3.00049 5.41242 2.76174 5.13882 2.46718 5.13882C2.17263 5.13882 1.93387 5.41242 1.93387 5.74995V6.36108C1.93387 6.69861 2.17263 6.97221 2.46718 6.97221Z" fill="#008BD6"/>
<path d="M5.4003 10.3335V10.1335H5.2003V10.3335H5.4003ZM5.93362 10.3335H6.13361V10.1335H5.93362V10.3335ZM5.93362 11.5557H5.73362V11.7557H5.93362V11.5557ZM14.4666 11.5557V11.7557H14.6666V11.5557H14.4666ZM14.4666 3.61111H14.6666V3.41111H14.4666V3.61111ZM5.93362 3.61111V3.41111H5.73362V3.61111H5.93362ZM5.93362 7.27785V7.47785H6.13361V7.27785H5.93362ZM5.4003 7.27785H5.2003V7.47785H5.4003V7.27785ZM4.60004 9.72237V9.52237H4.40004V9.72237H4.60004ZM7.2666 9.11125V9.31125H7.4666V9.11125H7.2666ZM7.2666 8.50012H7.4666V8.30012H7.2666V8.50012ZM0.866857 13.3891H0.666857V13.5891H0.866857V13.3891ZM4.06673 13.3891V13.5891H4.26673V13.3891H4.06673ZM6.9991 4.87137V4.67137H6.7991V4.87137H6.9991ZM13.3988 4.87137H13.5988V4.67137H13.3988V4.87137ZM6.9991 5.4825H6.7991V5.6825H6.9991V5.4825ZM13.3988 5.4825V5.6825H13.5988V5.4825H13.3988ZM13.3988 6.39924H13.5988V6.19924H13.3988V6.39924ZM6.9991 6.39924V6.19924H6.7991V6.39924H6.9991ZM13.3988 7.01036V7.21035H13.5988V7.01036H13.3988ZM6.9991 7.01036H6.7991V7.21035H6.9991V7.01036ZM8.46542 7.92727V7.72727H8.26542V7.92727H8.46542ZM13.3985 7.92727H13.5985V7.72727H13.3985V7.92727ZM8.46542 8.53839H8.26542V8.73839H8.46542V8.53839ZM13.3985 8.53839V8.73839H13.5985V8.53839H13.3985ZM14.7332 2.79999H5.66696V3.19999H14.7332V2.79999ZM15.1999 3.30555C15.1999 3.0528 15.0156 2.79999 14.7332 2.79999V3.19999C14.742 3.19999 14.7559 3.20362 14.7711 3.22099C14.7866 3.23876 14.7999 3.26806 14.7999 3.30555H15.1999ZM15.1999 11.8613V3.30555H14.7999V11.8613H15.1999ZM14.7332 12.3669C15.0156 12.3669 15.1999 12.114 15.1999 11.8613H14.7999C14.7999 11.8988 14.7866 11.9281 14.7711 11.9458C14.7559 11.9632 14.742 11.9669 14.7332 11.9669V12.3669ZM5.66696 12.3669H14.7332V11.9669H5.66696V12.3669ZM5.2003 11.8613C5.2003 12.114 5.38453 12.3669 5.66696 12.3669V11.9669C5.65813 11.9669 5.64426 11.9632 5.6291 11.9458C5.61359 11.9281 5.6003 11.8988 5.6003 11.8613H5.2003ZM5.2003 10.3335V11.8613H5.6003V10.3335H5.2003ZM5.93362 10.1335H5.4003V10.5335H5.93362V10.1335ZM6.13361 11.5557V10.3335H5.73362V11.5557H6.13361ZM14.4666 11.3557H5.93362V11.7557H14.4666V11.3557ZM14.2666 3.61111V11.5557H14.6666V3.61111H14.2666ZM5.93362 3.81111H14.4666V3.41111H5.93362V3.81111ZM6.13361 7.27785V3.61111H5.73362V7.27785H6.13361ZM5.4003 7.47785H5.93362V7.07785H5.4003V7.47785ZM5.2003 3.30555V7.27785H5.6003V3.30555H5.2003ZM5.66696 2.79999C5.38453 2.79999 5.2003 3.0528 5.2003 3.30555H5.6003C5.6003 3.26806 5.61359 3.23876 5.6291 3.22099C5.64426 3.20362 5.65813 3.19999 5.66696 3.19999V2.79999ZM7.53325 7.689H1.66683V8.089H7.53325V7.689ZM7.99991 8.19456C7.99991 7.94181 7.81569 7.689 7.53325 7.689V8.089C7.54208 8.089 7.55596 8.09263 7.57112 8.11C7.58662 8.12777 7.59991 8.15707 7.59991 8.19456H7.99991ZM7.99991 9.41681V8.19456H7.59991V9.41681H7.99991ZM7.53325 9.92237C7.81569 9.92237 7.99991 9.66956 7.99991 9.41681H7.59991C7.59991 9.4543 7.58662 9.4836 7.57112 9.50137C7.55596 9.51874 7.54208 9.52237 7.53325 9.52237V9.92237ZM4.60004 9.92237H7.53325V9.52237H4.60004V9.92237ZM4.80004 13.6947V9.72237H4.40004V13.6947H4.80004ZM4.33338 14.2003C4.61582 14.2003 4.80004 13.9474 4.80004 13.6947H4.40004C4.40004 13.7322 4.38675 13.7615 4.37125 13.7793C4.35608 13.7966 4.34221 13.8003 4.33338 13.8003V14.2003ZM0.600201 14.2003H4.33338V13.8003H0.600201V14.2003ZM0.133545 13.6947C0.133545 13.9474 0.31777 14.2003 0.600201 14.2003V13.8003C0.591373 13.8003 0.577501 13.7966 0.562339 13.7793C0.546831 13.7615 0.533545 13.7322 0.533545 13.6947H0.133545ZM0.133545 9.4166V13.6947H0.533545V9.41681L0.133545 9.4166ZM1.66683 7.689C0.795957 7.69017 0.134498 8.48934 0.133545 9.4166L0.533545 9.41681C0.534326 8.65737 1.06575 8.08981 1.66683 8.089V7.689ZM7.2666 8.91125H4.33338V9.31125H7.2666V8.91125ZM7.0666 8.50012V9.11125H7.4666V8.50012H7.0666ZM1.66683 8.70012H7.2666V8.30012H1.66683V8.70012ZM1.06686 9.41681C1.06686 8.99454 1.36018 8.70012 1.66683 8.70012V8.30012C1.08984 8.30012 0.666857 8.82653 0.666857 9.41681H1.06686ZM1.06686 13.3891V9.41681H0.666857V13.3891H1.06686ZM4.06673 13.1891H0.866857V13.5891H4.06673V13.1891ZM3.86673 9.41681V13.3891H4.26673V9.41681H3.86673ZM4.33338 8.91125C4.05095 8.91125 3.86673 9.16406 3.86673 9.41681H4.26673C4.26673 9.37932 4.28001 9.35002 4.29552 9.33225C4.31068 9.31488 4.32456 9.31125 4.33338 9.31125V8.91125ZM6.9991 5.07137H13.3988V4.67137H6.9991V5.07137ZM7.1991 5.4825V4.87137H6.7991V5.4825H7.1991ZM13.3988 5.2825H6.9991V5.6825H13.3988V5.2825ZM13.1988 4.87137V5.4825H13.5988V4.87137H13.1988ZM13.3988 6.19924H6.9991V6.59924H13.3988V6.19924ZM13.5988 7.01036V6.39924H13.1988V7.01036H13.5988ZM6.9991 7.21035H13.3988V6.81035H6.9991V7.21035ZM6.7991 6.39924V7.01036H7.1991V6.39924H6.7991ZM8.46542 8.12727H13.3985V7.72727H8.46542V8.12727ZM8.66542 8.53839V7.92727H8.26542V8.53839H8.66542ZM13.3985 8.33839H8.46542V8.73839H13.3985V8.33839ZM13.1985 7.92727V8.53839H13.5985V7.92727H13.1985ZM2.46723 4.32768C1.74298 4.32768 1.20061 4.99091 1.20061 5.74994H1.60061C1.60061 5.15892 2.01333 4.72768 2.46723 4.72768V4.32768ZM3.73386 5.74994C3.73386 4.99091 3.19148 4.32768 2.46723 4.32768V4.72768C2.92114 4.72768 3.33386 5.15892 3.33386 5.74994H3.73386ZM3.73386 6.36107V5.74994H3.33386V6.36107H3.73386ZM2.46723 7.78332C3.19148 7.78332 3.73386 7.1201 3.73386 6.36107H3.33386C3.33386 6.95209 2.92114 7.38332 2.46723 7.38332V7.78332ZM1.20061 6.36107C1.20061 7.1201 1.74298 7.78332 2.46723 7.78332V7.38332C2.01333 7.38332 1.60061 6.95209 1.60061 6.36107H1.20061ZM1.20061 5.74994V6.36107H1.60061V5.74994H1.20061ZM2.80054 6.36107C2.80054 6.6146 2.62662 6.7722 2.46723 6.7722V7.1722C2.89696 7.1722 3.20054 6.78261 3.20054 6.36107H2.80054ZM2.80054 5.74994V6.36107H3.20054V5.74994H2.80054ZM2.46723 5.33881C2.62662 5.33881 2.80054 5.49641 2.80054 5.74994H3.20054C3.20054 5.3284 2.89696 4.93881 2.46723 4.93881V5.33881ZM2.13392 5.74994C2.13392 5.49641 2.30785 5.33881 2.46723 5.33881V4.93881C2.03751 4.93881 1.73392 5.3284 1.73392 5.74994H2.13392ZM2.13392 6.36107V5.74994H1.73392V6.36107H2.13392ZM2.46723 6.7722C2.30785 6.7722 2.13392 6.6146 2.13392 6.36107H1.73392C1.73392 6.78261 2.03751 7.1722 2.46723 7.1722V6.7722Z" fill="#008BD6"/>
</svg>
