<svg width="16" height="16" viewBox="0 0 16 16" fill="none" xmlns="http://www.w3.org/2000/svg">
<path fill-rule="evenodd" clip-rule="evenodd" d="M5.66691 3H14.7332C14.8805 3 14.9999 3.13682 14.9999 3.30556V11.8613C14.9999 12.03 14.8805 12.1669 14.7332 12.1669H5.66691C5.51965 12.1669 5.40025 12.03 5.40025 11.8613V10.3335H5.93357V11.5557H14.4666V3.61112H5.93357V7.27786H5.40025V3.30556C5.40025 3.13682 5.51965 3 5.66691 3ZM1.66678 7.88901H7.5332C7.68047 7.88901 7.79986 8.02582 7.79986 8.19457V9.41682C7.79986 9.58557 7.68047 9.72238 7.5332 9.72238H4.59999V13.6947C4.59999 13.8634 4.4806 14.0003 4.33333 14.0003H0.600152C0.452891 14.0003 0.333496 13.8634 0.333496 13.6947V9.41682C0.334363 8.57347 0.930805 7.89 1.66678 7.88901ZM4.33333 9.11126H7.26655V8.50013H1.66678C1.22496 8.50013 0.866808 8.91054 0.866808 9.41682V13.3891H4.06668V9.41682C4.06668 9.24807 4.18607 9.11126 4.33333 9.11126ZM13.3988 4.87138H6.99905V5.48251H13.3988V4.87138ZM6.99905 6.39925H13.3988V7.01037H6.99905V6.39925ZM13.3985 7.92728H8.46537V8.5384H13.3985V7.92728ZM1.40056 5.74995C1.40056 5.07492 1.87811 4.52769 2.46718 4.52769C3.05626 4.52769 3.53381 5.07492 3.53381 5.74995V6.36108C3.53381 7.03611 3.05626 7.58333 2.46718 7.58333C1.87811 7.58333 1.40056 7.03611 1.40056 6.36108V5.74995ZM2.46718 6.97221C2.76174 6.97221 3.00049 6.69861 3.00049 6.36108V5.74995C3.00049 5.41242 2.76174 5.13882 2.46718 5.13882C2.17263 5.13882 1.93387 5.41242 1.93387 5.74995V6.36108C1.93387 6.69861 2.17263 6.97221 2.46718 6.97221Z" fill="#007CC2"/>
<path d="M5.40025 10.3335V10.1335H5.20025V10.3335H5.40025ZM5.93357 10.3335H6.13356V10.1335H5.93357V10.3335ZM5.93357 11.5557H5.73357V11.7557H5.93357V11.5557ZM14.4666 11.5557V11.7557H14.6666V11.5557H14.4666ZM14.4666 3.61112H14.6666V3.41112H14.4666V3.61112ZM5.93357 3.61112V3.41112H5.73357V3.61112H5.93357ZM5.93357 7.27786V7.47786H6.13356V7.27786H5.93357ZM5.40025 7.27786H5.20025V7.47786H5.40025V7.27786ZM1.66678 7.88901V7.68901L1.66651 7.68901L1.66678 7.88901ZM4.59999 9.72238V9.52238H4.39999V9.72238H4.59999ZM0.333496 9.41682L0.133496 9.41661V9.41682H0.333496ZM7.26655 9.11126V9.31126H7.46655V9.11126H7.26655ZM7.26655 8.50013H7.46655V8.30013H7.26655V8.50013ZM0.866808 13.3891H0.666808V13.5891H0.866808V13.3891ZM4.06668 13.3891V13.5891H4.26668V13.3891H4.06668ZM6.99905 4.87138V4.67138H6.79905V4.87138H6.99905ZM13.3988 4.87138H13.5988V4.67138H13.3988V4.87138ZM6.99905 5.48251H6.79905V5.68251H6.99905V5.48251ZM13.3988 5.48251V5.68251H13.5988V5.48251H13.3988ZM13.3988 6.39925H13.5988V6.19925H13.3988V6.39925ZM6.99905 6.39925V6.19925H6.79905V6.39925H6.99905ZM13.3988 7.01037V7.21036H13.5988V7.01037H13.3988ZM6.99905 7.01037H6.79905V7.21036H6.99905V7.01037ZM8.46537 7.92728V7.72728H8.26537V7.92728H8.46537ZM13.3985 7.92728H13.5985V7.72728H13.3985V7.92728ZM8.46537 8.5384H8.26537V8.7384H8.46537V8.5384ZM13.3985 8.5384V8.7384H13.5985V8.5384H13.3985ZM14.7332 2.8H5.66691V3.2H14.7332V2.8ZM15.1999 3.30556C15.1999 3.05281 15.0156 2.8 14.7332 2.8V3.2C14.742 3.2 14.7559 3.20363 14.7711 3.221C14.7866 3.23877 14.7999 3.26807 14.7999 3.30556H15.1999ZM15.1999 11.8613V3.30556H14.7999V11.8613H15.1999ZM14.7332 12.3669C15.0156 12.3669 15.1999 12.114 15.1999 11.8613H14.7999C14.7999 11.8988 14.7866 11.9281 14.7711 11.9458C14.7559 11.9632 14.742 11.9669 14.7332 11.9669V12.3669ZM5.66691 12.3669H14.7332V11.9669H5.66691V12.3669ZM5.20025 11.8613C5.20025 12.114 5.38448 12.3669 5.66691 12.3669V11.9669C5.65808 11.9669 5.64421 11.9632 5.62905 11.9458C5.61354 11.9281 5.60025 11.8988 5.60025 11.8613H5.20025ZM5.20025 10.3335V11.8613H5.60025V10.3335H5.20025ZM5.93357 10.1335H5.40025V10.5335H5.93357V10.1335ZM6.13356 11.5557V10.3335H5.73357V11.5557H6.13356ZM14.4666 11.3557H5.93357V11.7557H14.4666V11.3557ZM14.2666 3.61112V11.5557H14.6666V3.61112H14.2666ZM5.93357 3.81112H14.4666V3.41112H5.93357V3.81112ZM6.13356 7.27786V3.61112H5.73357V7.27786H6.13356ZM5.40025 7.47786H5.93357V7.07786H5.40025V7.47786ZM5.20025 3.30556V7.27786H5.60025V3.30556H5.20025ZM5.66691 2.8C5.38448 2.8 5.20025 3.05281 5.20025 3.30556H5.60025C5.60025 3.26807 5.61354 3.23877 5.62905 3.221C5.64421 3.20363 5.65808 3.2 5.66691 3.2V2.8ZM7.5332 7.68901H1.66678V8.08901H7.5332V7.68901ZM7.99986 8.19457C7.99986 7.94182 7.81564 7.68901 7.5332 7.68901V8.08901C7.54203 8.08901 7.55591 8.09264 7.57107 8.11001C7.58657 8.12778 7.59986 8.15708 7.59986 8.19457H7.99986ZM7.99986 9.41682V8.19457H7.59986V9.41682H7.99986ZM7.5332 9.92238C7.81564 9.92238 7.99986 9.66957 7.99986 9.41682H7.59986C7.59986 9.45431 7.58657 9.48361 7.57107 9.50138C7.55591 9.51875 7.54203 9.52238 7.5332 9.52238V9.92238ZM4.59999 9.92238H7.5332V9.52238H4.59999V9.92238ZM4.79999 13.6947V9.72238H4.39999V13.6947H4.79999ZM4.33333 14.2003C4.61577 14.2003 4.79999 13.9474 4.79999 13.6947H4.39999C4.39999 13.7322 4.3867 13.7615 4.3712 13.7793C4.35603 13.7966 4.34216 13.8003 4.33333 13.8003V14.2003ZM0.600152 14.2003H4.33333V13.8003H0.600152V14.2003ZM0.133496 13.6947C0.133496 13.9474 0.317721 14.2003 0.600152 14.2003V13.8003C0.591324 13.8003 0.577452 13.7966 0.56229 13.7793C0.546782 13.7615 0.533496 13.7322 0.533496 13.6947H0.133496ZM0.133496 9.41682V13.6947H0.533496V9.41682H0.133496ZM1.66651 7.68901C0.795638 7.69018 0.134449 8.48935 0.133496 9.41661L0.533496 9.41703C0.534277 8.65759 1.06597 8.08982 1.66705 8.08901L1.66651 7.68901ZM7.26655 8.91126H4.33333V9.31126H7.26655V8.91126ZM7.06655 8.50013V9.11126H7.46655V8.50013H7.06655ZM1.66678 8.70013H7.26655V8.30013H1.66678V8.70013ZM1.06681 9.41682C1.06681 8.99455 1.36013 8.70013 1.66678 8.70013V8.30013C1.08979 8.30013 0.666808 8.82654 0.666808 9.41682H1.06681ZM1.06681 13.3891V9.41682H0.666808V13.3891H1.06681ZM4.06668 13.1891H0.866808V13.5891H4.06668V13.1891ZM3.86668 9.41682V13.3891H4.26668V9.41682H3.86668ZM4.33333 8.91126C4.0509 8.91126 3.86668 9.16407 3.86668 9.41682H4.26668C4.26668 9.37933 4.27996 9.35003 4.29547 9.33226C4.31063 9.31489 4.32451 9.31126 4.33333 9.31126V8.91126ZM6.99905 5.07138H13.3988V4.67138H6.99905V5.07138ZM7.19905 5.48251V4.87138H6.79905V5.48251H7.19905ZM13.3988 5.28251H6.99905V5.68251H13.3988V5.28251ZM13.1988 4.87138V5.48251H13.5988V4.87138H13.1988ZM13.3988 6.19925H6.99905V6.59925H13.3988V6.19925ZM13.5988 7.01037V6.39925H13.1988V7.01037H13.5988ZM6.99905 7.21036H13.3988V6.81036H6.99905V7.21036ZM6.79905 6.39925V7.01037H7.19905V6.39925H6.79905ZM8.46537 8.12728H13.3985V7.72728H8.46537V8.12728ZM8.66537 8.5384V7.92728H8.26537V8.5384H8.66537ZM13.3985 8.3384H8.46537V8.7384H13.3985V8.3384ZM13.1985 7.92728V8.5384H13.5985V7.92728H13.1985ZM2.46718 4.32769C1.74293 4.32769 1.20056 4.99092 1.20056 5.74995H1.60056C1.60056 5.15893 2.01328 4.72769 2.46718 4.72769V4.32769ZM3.73381 5.74995C3.73381 4.99092 3.19143 4.32769 2.46718 4.32769V4.72769C2.92109 4.72769 3.33381 5.15893 3.33381 5.74995H3.73381ZM3.73381 6.36108V5.74995H3.33381V6.36108H3.73381ZM2.46718 7.78333C3.19143 7.78333 3.73381 7.12011 3.73381 6.36108H3.33381C3.33381 6.9521 2.92109 7.38333 2.46718 7.38333V7.78333ZM1.20056 6.36108C1.20056 7.12011 1.74293 7.78333 2.46718 7.78333V7.38333C2.01328 7.38333 1.60056 6.9521 1.60056 6.36108H1.20056ZM1.20056 5.74995V6.36108H1.60056V5.74995H1.20056ZM2.80049 6.36108C2.80049 6.61461 2.62657 6.77221 2.46718 6.77221V7.17221C2.89691 7.17221 3.20049 6.78262 3.20049 6.36108H2.80049ZM2.80049 5.74995V6.36108H3.20049V5.74995H2.80049ZM2.46718 5.33882C2.62657 5.33882 2.80049 5.49642 2.80049 5.74995H3.20049C3.20049 5.32841 2.89691 4.93882 2.46718 4.93882V5.33882ZM2.13387 5.74995C2.13387 5.49642 2.3078 5.33882 2.46718 5.33882V4.93882C2.03746 4.93882 1.73387 5.32841 1.73387 5.74995H2.13387ZM2.13387 6.36108V5.74995H1.73387V6.36108H2.13387ZM2.46718 6.77221C2.3078 6.77221 2.13387 6.61461 2.13387 6.36108H1.73387C1.73387 6.78262 2.03746 7.17221 2.46718 7.17221V6.77221Z" fill="white"/>
</svg>
