<svg width="16" height="16" viewBox="0 0 16 16" fill="none" xmlns="http://www.w3.org/2000/svg">
<path d="M9.76613 10.8479L7.97134 10.0431C7.80206 9.96706 7.69685 9.81438 7.69685 9.64451V9.07473C7.73988 9.02754 7.78515 8.97378 7.83194 8.91446C8.06472 8.61955 8.25128 8.29126 8.38692 7.93719C8.65202 7.82816 8.82411 7.59307 8.82411 7.32764V6.65355C8.82411 6.49126 8.75648 6.33402 8.63624 6.21117V5.31479C8.64676 5.2221 8.68809 4.67036 8.2432 4.21517C7.8573 3.82032 7.23111 3.62012 6.38171 3.62012C5.53232 3.62012 4.90613 3.82032 4.52023 4.21501C4.07534 4.67019 4.11667 5.2221 4.12719 5.31462V6.211C4.00695 6.33386 3.93932 6.49109 3.93932 6.65338V7.32747C3.93932 7.53257 4.04321 7.72384 4.22057 7.85141C4.39266 8.46265 4.75282 8.92323 4.8787 9.07102V9.62867C4.8787 9.7918 4.7795 9.94145 4.61999 10.0196L2.94394 10.8397C2.39891 11.1066 2.06055 11.6179 2.06055 12.1747V12.8889H10.7029V12.2076C10.7029 11.628 10.3438 11.1071 9.76613 10.8479Z" fill="white"/>
<path d="M12.4814 11.0396L10.6546 10.3301C10.6114 10.3107 10.5635 10.2634 10.5224 10.2002L11.7483 10.1993C11.7483 10.1993 11.8191 10.2056 11.929 10.2056C12.1306 10.2056 12.4246 10.185 12.6805 10.0864C12.834 10.0271 12.9482 9.90996 12.9941 9.76503C13.0403 9.61875 13.011 9.46388 12.914 9.33984C12.5637 8.89258 11.7458 7.72386 11.7203 6.53846C11.7197 6.51807 11.6457 4.50219 9.4263 4.48584C9.20329 4.48753 8.99249 4.51213 8.79277 4.55544C8.94157 4.90833 8.92786 5.22414 8.91771 5.32661V6.12423C9.03946 6.27961 9.10559 6.46415 9.10559 6.65357V7.32766C9.10559 7.64904 8.91696 7.94648 8.61579 8.11332C8.47526 8.45408 8.28926 8.77242 8.06175 9.0606C8.03356 9.09649 8.00576 9.13037 7.97852 9.16239V9.64436C7.97852 9.71885 8.02285 9.7834 8.09707 9.8166L9.89185 10.6215C10.5658 10.9238 10.9844 11.5313 10.9844 12.2073V12.889H13.333V12.2659C13.333 11.7449 13.0102 11.2767 12.4814 11.0396Z" fill="white"/>
</svg>
