<svg width="16" height="16" viewBox="0 0 16 16" fill="none" xmlns="http://www.w3.org/2000/svg">
<path d="M8.95852 8.44425C8.75115 8.44425 8.58354 8.64339 8.58354 8.88867V10.6665C8.58354 10.9114 8.41552 11.1109 8.20849 11.1109H7.08349V4.44425C7.08349 4.0647 6.87948 3.72559 6.57276 3.59937L6.46173 3.55534H8.20849C8.41552 3.55534 8.58354 3.75488 8.58354 3.99984V5.33317C8.58354 5.57845 8.75115 5.77759 8.95852 5.77759C9.16589 5.77759 9.3335 5.57845 9.3335 5.33317V3.99984C9.3335 3.26473 8.82874 2.6665 8.20849 2.6665H4.17725C4.16297 2.6665 4.15102 2.67407 4.13715 2.67627C4.11909 2.67448 4.10186 2.6665 4.08352 2.6665C3.66989 2.6665 3.3335 3.0651 3.3335 3.55534V11.5553C3.3335 11.9349 3.5375 12.274 3.84422 12.4002L6.10103 13.2918C6.17752 13.3198 6.2536 13.3332 6.33353 13.3332C6.74717 13.3332 7.08349 12.9345 7.08349 12.4443V11.9998H8.20849C8.82874 11.9998 9.3335 11.4016 9.3335 10.6665V8.88867C9.3335 8.64339 9.16589 8.44425 8.95852 8.44425Z" fill="#F2F2F2"/>
<path d="M11.8934 7.05072L10.4388 5.4508C10.3349 5.3364 10.1785 5.30198 10.0425 5.36394C9.90691 5.42597 9.81816 5.57194 9.81816 5.73358V6.93353H8.36367C8.16293 6.93353 8 7.11268 8 7.33349C8 7.55431 8.16293 7.73346 8.36367 7.73346H9.81816V8.93341C9.81816 9.09505 9.90691 9.24102 10.0425 9.30305C10.1785 9.36501 10.3349 9.33059 10.4388 9.21626L11.8934 7.61627C12.0355 7.45991 12.0355 7.20708 11.8934 7.05072Z" fill="#F2F2F2"/>
</svg>
