<svg clip-rule="evenodd" fill-rule="evenodd" height="512" stroke-linejoin="round" stroke-miterlimit="2" viewBox="0 0 24 24" width="512" xmlns="http://www.w3.org/2000/svg"><g id="Icon"><path d="m16.25 19.492v1.258c0 .414-.336.75-.75.75s-.75-.336-.75-.75v-1.25h1.25c.084 0 .167-.003.25-.008z" fill="#00ff00"/><path d="m14.75 19.5h-6.75c-2.071 0-3.75-1.679-3.75-3.75v-3.082l5.714 3.157c1.238.684 2.834.684 4.072 0l.714-.394zm1.5-4.898 3.5-1.934v3.082c0 1.987-1.545 3.613-3.5 3.742z" fill="#00ff00"/><path d="m14.75 14.288-1.198.662c-.944.522-2.16.522-3.104 0l-8.314-4.594c-.566-.313-.884-.861-.884-1.434 0-.574.318-1.122.884-1.434l8.314-4.595c.944-.521 2.16-.521 3.104 0l8.314 4.595c.566.312.884.86.884 1.434 0 .573-.318 1.121-.884 1.434l-5.616 3.103v-.709c0-.199-.079-.39-.22-.53l-3.5-3.5c-.292-.293-.768-.293-1.06 0-.293.292-.293.768 0 1.06l3.28 3.281z" fill="#00ff00"/></g></svg>