<svg width="19" height="21" viewBox="0 0 19 21" fill="none" xmlns="http://www.w3.org/2000/svg">
<path d="M5.2999 9.793H4.5999V11.193H5.2999V9.793ZM13.6999 11.193H14.3999V9.793H13.6999V11.193ZM5.2999 14.7H4.5999V15.4H5.2999V14.7ZM13.6999 14.7V15.4H14.3999V14.7H13.6999ZM5.2999 5.5958H4.5999V6.9958H5.2999V5.5958ZM13.6999 6.9958H14.3999V5.5958H13.6999V6.9958ZM17.8999 4.9H18.5999V4.6102L18.3955 4.4044L17.8999 4.9ZM13.6999 0.7L14.1955 0.2044L13.9897 0H13.6999V0.7ZM5.2999 11.193H13.6999V9.793H5.2999V11.193ZM5.2999 15.4H13.6999V14H5.2999V15.4ZM5.2999 6.9958H13.6999V5.5958H5.2999V6.9958ZM16.4999 19.6H2.4999V21H16.4999V19.6ZM1.7999 18.9V2.1H0.399902V18.9H1.7999ZM17.1999 4.9V18.9H18.5999V4.9H17.1999ZM2.4999 1.4H13.6999V0H2.4999V1.4ZM13.2043 1.1956L17.4043 5.3956L18.3955 4.4044L14.1955 0.2044L13.2043 1.1956ZM2.4999 19.6C2.31425 19.6 2.1362 19.5263 2.00493 19.395C1.87365 19.2637 1.7999 19.0857 1.7999 18.9H0.399902C0.399902 19.457 0.621152 19.9911 1.01498 20.3849C1.4088 20.7788 1.94295 21 2.4999 21V19.6ZM16.4999 21C17.0569 21 17.591 20.7788 17.9848 20.3849C18.3787 19.9911 18.5999 19.457 18.5999 18.9H17.1999C17.1999 19.0857 17.1262 19.2637 16.9949 19.395C16.8636 19.5263 16.6856 19.6 16.4999 19.6V21ZM1.7999 2.1C1.7999 1.91435 1.87365 1.7363 2.00493 1.60503C2.1362 1.47375 2.31425 1.4 2.4999 1.4V0C1.94295 0 1.4088 0.221249 1.01498 0.615076C0.621152 1.0089 0.399902 1.54305 0.399902 2.1H1.7999ZM4.5999 6.3V14.7H5.9999V6.3H4.5999ZM8.7999 6.3V14.7H10.1999V6.3H8.7999ZM12.9999 6.3V14.7H14.3999V6.3H12.9999Z" fill="#747474"/>
</svg>
